<mxfile host="65bd71144e">
    <diagram id="sRoGtRAufhSeRhpbneCB" name="Page-1">
        <mxGraphModel dx="746" dy="602" grid="1" gridSize="10" guides="1" tooltips="1" connect="1" arrows="1" fold="1" page="1" pageScale="1" pageWidth="4681" pageHeight="3300" math="0" shadow="0">
            <root>
                <mxCell id="0"/>
                <mxCell id="1" parent="0"/>
                <mxCell id="22" value="" style="endArrow=classic;startArrow=classic;html=1;exitX=0;exitY=0.5;exitDx=0;exitDy=0;entryX=1;entryY=0.5;entryDx=0;entryDy=0;" edge="1" parent="1" source="11" target="9">
                    <mxGeometry width="50" height="50" relative="1" as="geometry">
                        <mxPoint x="440" y="449.9999999999999" as="sourcePoint"/>
                        <mxPoint x="440" y="480" as="targetPoint"/>
                    </mxGeometry>
                </mxCell>
                <mxCell id="21" value="" style="endArrow=classic;startArrow=classic;html=1;exitX=0.5;exitY=0;exitDx=0;exitDy=0;entryX=0.5;entryY=1;entryDx=0;entryDy=0;" edge="1" parent="1" source="12" target="10">
                    <mxGeometry width="50" height="50" relative="1" as="geometry">
                        <mxPoint x="430" y="439.9999999999999" as="sourcePoint"/>
                        <mxPoint x="430" y="470" as="targetPoint"/>
                    </mxGeometry>
                </mxCell>
                <mxCell id="2" value="Mesh server" style="ellipse;shape=cloud;whiteSpace=wrap;html=1;" vertex="1" parent="1">
                    <mxGeometry x="340" y="230" width="120" height="80" as="geometry"/>
                </mxCell>
                <mxCell id="8" value="" style="ellipse;whiteSpace=wrap;html=1;aspect=fixed;gradientColor=none;fillOpacity=0;" vertex="1" parent="1">
                    <mxGeometry x="280" y="150" width="240" height="240" as="geometry"/>
                </mxCell>
                <mxCell id="9" value="Mesh Driver" style="html=1;gradientColor=none;" vertex="1" parent="1">
                    <mxGeometry x="240" y="250" width="80" height="40" as="geometry"/>
                </mxCell>
                <mxCell id="10" value="Mesh Driver" style="html=1;gradientColor=none;" vertex="1" parent="1">
                    <mxGeometry x="360" y="130" width="80" height="40" as="geometry"/>
                </mxCell>
                <mxCell id="11" value="Mesh Driver" style="html=1;gradientColor=none;" vertex="1" parent="1">
                    <mxGeometry x="480" y="250" width="80" height="40" as="geometry"/>
                </mxCell>
                <mxCell id="12" value="Mesh Driver" style="html=1;gradientColor=none;" vertex="1" parent="1">
                    <mxGeometry x="360" y="370" width="80" height="40" as="geometry"/>
                </mxCell>
                <mxCell id="13" value="Mesh&lt;br&gt;Manager" style="html=1;gradientColor=none;" vertex="1" parent="1">
                    <mxGeometry x="360" y="60" width="80" height="40" as="geometry"/>
                </mxCell>
                <mxCell id="14" value="Mesh&lt;br&gt;Manager" style="html=1;gradientColor=none;" vertex="1" parent="1">
                    <mxGeometry x="590" y="250" width="80" height="40" as="geometry"/>
                </mxCell>
                <mxCell id="15" value="Mesh&lt;br&gt;Manager" style="html=1;gradientColor=none;" vertex="1" parent="1">
                    <mxGeometry x="360" y="440" width="80" height="40" as="geometry"/>
                </mxCell>
                <mxCell id="16" value="Mesh&lt;br&gt;Manager" style="html=1;gradientColor=none;" vertex="1" parent="1">
                    <mxGeometry x="130" y="250" width="80" height="40" as="geometry"/>
                </mxCell>
                <mxCell id="17" value="" style="endArrow=classic;startArrow=classic;html=1;exitX=1;exitY=0.5;exitDx=0;exitDy=0;entryX=0;entryY=0.5;entryDx=0;entryDy=0;" edge="1" parent="1" source="16" target="9">
                    <mxGeometry width="50" height="50" relative="1" as="geometry">
                        <mxPoint x="200" y="160" as="sourcePoint"/>
                        <mxPoint x="250" y="110" as="targetPoint"/>
                    </mxGeometry>
                </mxCell>
                <mxCell id="18" value="" style="endArrow=classic;startArrow=classic;html=1;exitX=0.5;exitY=1;exitDx=0;exitDy=0;entryX=0.5;entryY=0;entryDx=0;entryDy=0;" edge="1" parent="1" source="12" target="15">
                    <mxGeometry width="50" height="50" relative="1" as="geometry">
                        <mxPoint x="220.0000000000001" y="280.0000000000001" as="sourcePoint"/>
                        <mxPoint x="250.0000000000001" y="280.0000000000001" as="targetPoint"/>
                    </mxGeometry>
                </mxCell>
                <mxCell id="19" value="" style="endArrow=classic;startArrow=classic;html=1;exitX=0.5;exitY=1;exitDx=0;exitDy=0;entryX=0.5;entryY=0;entryDx=0;entryDy=0;" edge="1" parent="1" source="13" target="10">
                    <mxGeometry width="50" height="50" relative="1" as="geometry">
                        <mxPoint x="410" y="419.9999999999999" as="sourcePoint"/>
                        <mxPoint x="410" y="450" as="targetPoint"/>
                    </mxGeometry>
                </mxCell>
                <mxCell id="20" value="" style="endArrow=classic;startArrow=classic;html=1;exitX=0;exitY=0.5;exitDx=0;exitDy=0;entryX=1;entryY=0.5;entryDx=0;entryDy=0;" edge="1" parent="1" source="14" target="11">
                    <mxGeometry width="50" height="50" relative="1" as="geometry">
                        <mxPoint x="420" y="429.9999999999999" as="sourcePoint"/>
                        <mxPoint x="420" y="460" as="targetPoint"/>
                    </mxGeometry>
                </mxCell>
            </root>
        </mxGraphModel>
    </diagram>
</mxfile>